<svg id="visual" viewBox="0 0 2880 1620" width="2880" height="1620" xmlns="http://www.w3.org/2000/svg" xmlns:xlink="http://www.w3.org/1999/xlink" version="1.1"><rect x="0" y="0" width="2880" height="1620" fill="#001122"></rect><path d="M0 968L15.5 884.5C31 801 62 634 93 594C124 554 155 641 186 607.3C217 573.7 248 419.3 279 315.3C310 211.3 341 157.7 372 146.5C403 135.3 434 166.7 464.8 250C495.7 333.3 526.3 468.7 557.2 551.3C588 634 619 664 650 666.7C681 669.3 712 644.7 743 579.3C774 514 805 408 836 443.2C867 478.3 898 654.7 929 670.3C960 686 991 541 1022 534C1053 527 1084 658 1115 709C1146 760 1177 731 1208 639.2C1239 547.3 1270 392.7 1301 436.3C1332 480 1363 722 1393.8 790.2C1424.7 858.3 1455.3 752.7 1486.2 731.3C1517 710 1548 773 1579 692.2C1610 611.3 1641 386.7 1672 354.8C1703 323 1734 484 1765 457.7C1796 431.3 1827 217.7 1858 136.2C1889 54.7 1920 105.3 1951 168C1982 230.7 2013 305.3 2044 305.2C2075 305 2106 230 2137 224C2168 218 2199 281 2230 288C2261 295 2292 246 2322.8 341C2353.7 436 2384.3 675 2415.2 679.3C2446 683.7 2477 453.3 2508 314.8C2539 176.3 2570 129.7 2601 176.7C2632 223.7 2663 364.3 2694 426.3C2725 488.3 2756 471.7 2787 407.7C2818 343.7 2849 232.3 2864.5 176.7L2880 121L2880 0L2864.5 0C2849 0 2818 0 2787 0C2756 0 2725 0 2694 0C2663 0 2632 0 2601 0C2570 0 2539 0 2508 0C2477 0 2446 0 2415.2 0C2384.3 0 2353.7 0 2322.8 0C2292 0 2261 0 2230 0C2199 0 2168 0 2137 0C2106 0 2075 0 2044 0C2013 0 1982 0 1951 0C1920 0 1889 0 1858 0C1827 0 1796 0 1765 0C1734 0 1703 0 1672 0C1641 0 1610 0 1579 0C1548 0 1517 0 1486.2 0C1455.3 0 1424.7 0 1393.8 0C1363 0 1332 0 1301 0C1270 0 1239 0 1208 0C1177 0 1146 0 1115 0C1084 0 1053 0 1022 0C991 0 960 0 929 0C898 0 867 0 836 0C805 0 774 0 743 0C712 0 681 0 650 0C619 0 588 0 557.2 0C526.3 0 495.7 0 464.8 0C434 0 403 0 372 0C341 0 310 0 279 0C248 0 217 0 186 0C155 0 124 0 93 0C62 0 31 0 15.5 0L0 0Z" fill="#4e0101" stroke-linecap="round" stroke-linejoin="miter"></path></svg>