<svg id="Layer_1" data-name="Layer 1" xmlns="http://www.w3.org/2000/svg" viewBox="0 0 6685.08 1049"><defs><style>.cls-1{isolation:isolate;}</style></defs><g class="cls-1"><path d="M607,438.84H364V364q0-52.4-9.3-66.76t-31-14.36q-23.55,0-35.64,19.34T276,360.81q0,50.54,13.5,76.11,12.88,25.59,73.88,61.53Q538.27,602,583.64,668.53T629,883.15q0,107.63-25.19,158.63t-97.29,85.54q-72.12,34.5-167.86,34.52-105.08,0-179.36-39.81T62,1020.61Q39,959,39,845.79V779.84H282V902.67q0,56.76,10.23,73t36.29,16.2q26,0,38.76-20.56T380,910.18q0-89.1-24.09-116.56-24.71-27.42-122.33-91.28-97.65-64.46-129.3-93.7T51.8,527.78Q31,476.15,31,395.89,31,280.2,60.52,226.68T155.89,143Q221.76,112.85,315,112.84q101.88,0,173.65,33t95.07,83.05Q607,279,607,399Z" transform="translate(-31 -112.84)"/><path d="M1306.76,133.84V806.73q0,114.45-7.47,160.77t-44.15,95.15q-36.71,48.82-96.74,74t-141.5,25.19q-90.18,0-159.23-29.84T754.4,1054.26Q720.19,1006.38,714,953.2t-6.22-223.58V133.84h262V889.18q0,66,7.13,84.32t28.82,18.34q24.81,0,31.93-20.22t7.12-95.51V133.84Z" transform="translate(-31 -112.84)"/><path d="M2009.47,133.84v1007h-262v-423h-78v423h-262v-1007h262v360h78v-360Z" transform="translate(-31 -112.84)"/><path d="M2673.75,133.84l-191,642.52v364.48h-243V776.36l-184-642.52H2296.5Q2352.29,429,2360,531q22.07-161,73-397.2Z" transform="translate(-31 -112.84)"/><path d="M2717.53,133.84h436v202h-174v190h163v192h-163v221h192v202h-454Z" transform="translate(-31 -112.84)"/><path d="M3845.9,723.46q0,151.74-7.15,214.85T3794,1053.65q-37.63,52.21-101.73,80.21t-149.32,28q-80.9,0-145.28-26.42T3294,1056.14q-39.2-52.86-46.66-115t-7.47-217.65V551.21q0-151.71,7.16-214.82T3291.86,221q37.63-52.21,101.72-80.22t149.32-28q80.89,0,145.28,26.44t103.58,79.28q39.19,52.84,46.67,115t7.47,217.62Zm-262-331.06q0-70.33-7.76-89.95t-32-19.61q-20.51,0-31.37,15.87T3501.9,392.4V863q0,87.79,7.14,108.33t33.24,20.53q26.71,0,34.17-23.66t7.45-112.67Z" transform="translate(-31 -112.84)"/><path d="M4528,133.84v1007H4298L4162,683.06v457.78H3943v-1007h219l147,453.44V133.84Z" transform="translate(-31 -112.84)"/><path d="M5482.92,133.84l-150.5,454.67,164.5,552.33h-270l-107.5-431.66v431.66h-262v-1007h262V525.07l118.5-391.23Z" transform="translate(-31 -112.84)"/><path d="M5803.06,133.84v1007h-262v-1007Z" transform="translate(-31 -112.84)"/><path d="M6716.08,133.84v1007h-229l-.5-679.83-90.5,679.83h-163L6137.58,476l-.5,664.83h-229v-1007h338.75q14.1,90.89,30.86,214.06l36.89,256.16,59.75-470.22Z" transform="translate(-31 -112.84)"/></g></svg>